
<svg width="1024px" height="29px" viewBox="0 0 1024 29" version="1.1" xmlns="http://www.w3.org/2000/svg" xmlns:xlink="http://www.w3.org/1999/xlink">
    <!-- Generator: Sketch 49.1 (51147) - http://www.bohemiancoding.com/sketch -->
    <desc>Created with Sketch.</desc>
    <defs></defs>
    <g id="Welcome" stroke="none" stroke-width="1" fill="none" fill-rule="evenodd">
        <g id="Version-1" transform="translate(0.000000, -1434.000000)">
            <g id="Our-Services" transform="translate(-75.000000, 1100.000000)">
                <g id="Group" transform="translate(600.500000, 348.500000) rotate(-180.000000) translate(-600.500000, -348.500000) translate(43.000000, 334.000000)">
                    <path d="M301.1308,7.53840522 L1106.69182,7.53840522 C1110.29176,7.53840522 1113.4483,9.94290906 1114.40447,13.4135372 L1114.73912,14.6282041 C1115.56143,17.6129413 1113.80843,20.6991613 1110.82369,21.5214693 C1110.33986,21.6547688 1109.84031,21.7224906 1109.33844,21.7228193 L299.201225,22.2533932 C295.778625,22.2556347 293.002243,19.4828863 293.000001,16.0602863 C292.999746,15.6704045 293.036284,15.2813686 293.109129,14.8983525 L293.271676,14.0436897 C293.989494,10.2694457 297.288902,7.53840522 301.1308,7.53840522 Z" id="Rectangle" fill="#FFBA00"></path>
                    <path d="M162.385974,0.049928169 L1106.32721,0.049928169 C1109.92715,0.049928169 1113.08369,2.45443202 1114.03986,5.92506011 L1114.70483,8.33869513 C1115.6662,11.8281863 1113.61675,15.4363222 1110.12726,16.3976922 C1109.5616,16.5535341 1108.97757,16.6327085 1108.39084,16.6330928 L161.249925,17.2533929 C157.248524,17.2560135 154.002622,14.0143609 154.000002,10.0129591 C153.999703,9.55714382 154.04242,9.10231741 154.127584,8.65452871 L154.52685,6.55521268 C155.244668,2.78096869 158.544076,0.049928169 162.385974,0.049928169 Z" id="Rectangle" fill="#FFBA00" opacity="0.465126812"></path>
                    <rect id="Rectangle-2" fill="#FFD327" x="0" y="17" width="1107" height="12"></rect>
                </g>
            </g>
        </g>
    </g>
</svg>