
<svg width="720px" height="66px" viewBox="0 0 720 66" version="1.1" xmlns="http://www.w3.org/2000/svg" xmlns:xlink="http://www.w3.org/1999/xlink">
    <!-- Generator: Sketch 49.1 (51147) - http://www.bohemiancoding.com/sketch -->
    <desc>Created with Sketch.</desc>
    <defs>
        <polygon id="path-1" points="0 0 66 0 66 66 0 66"></polygon>
        <polygon id="path-3" points="0 66 66 66 66 0 0 0"></polygon>
        <polygon id="path-5" points="0.0001 0.0001 57.577 0.0001 57.577 66 0.0001 66"></polygon>
        <polygon id="path-7" points="0.7476 0.1624 3.577 0.1624 3.577 19.8374 0.7476 19.8374"></polygon>
        <polygon id="path-9" points="0.7476 0.4307 3.577 0.4307 3.577 7.4717 0.7476 7.4717"></polygon>
        <polygon id="path-11" points="1.25582043e-05 0 66 0 66 65.9998 1.25582043e-05 65.9998"></polygon>
        <polygon id="path-13" points="0 0.0001 65.9995 0.0001 65.9995 66 0 66"></polygon>
        <polygon id="path-15" points="0 0.0004 65.9999594 0.0004 65.9999594 66 0 66"></polygon>
        <polygon id="path-17" points="0 0.0001 66 0.0001 66 66 0 66"></polygon>
        <polygon id="path-19" points="0 66 66 66 66 0 0 0"></polygon>
    </defs>
    <g id="Welcome" stroke="none" stroke-width="1" fill="none" fill-rule="evenodd">
        <g id="Version-1" transform="translate(-157.000000, -1213.000000)">
            <g id="Our-Services" transform="translate(-75.000000, 1100.000000)">
                <g id="Page-1" transform="translate(886.000000, 113.000000)">
                    <g id="Group-3">
                        <mask id="mask-2" fill="white">
                            <use xlink:href="#path-1"></use>
                        </mask>
                        <g id="Clip-2"></g>
                        <path d="M1.415,66 C0.635,66 0,65.365 0,64.585 L0,1.415 C0,0.635 0.635,0 1.415,0 L45.634,0 C46.414,0 47.049,0.635 47.049,1.415 L47.049,18.26 C47.049,18.642 47.358,18.951 47.74,18.951 L54.057,18.951 C54.837,18.951 55.472,19.586 55.472,20.366 C55.472,21.146 54.837,21.78 54.057,21.78 L47.74,21.78 C47.358,21.78 47.049,22.09 47.049,22.472 L47.049,41.423 C47.049,41.805 47.358,42.114 47.74,42.114 L54.057,42.114 C54.837,42.114 55.472,42.749 55.472,43.528 C55.472,44.309 54.837,44.943 54.057,44.943 L30.894,44.943 C30.114,44.943 29.479,44.309 29.479,43.528 C29.479,42.749 30.114,42.114 30.894,42.114 L43.528,42.114 C43.91,42.114 44.22,41.805 44.22,41.423 L44.22,3.521 C44.22,3.139 43.91,2.829 43.528,2.829 L28.789,2.829 C28.407,2.829 28.098,3.139 28.098,3.521 L28.098,18.26 C28.098,18.642 28.407,18.951 28.789,18.951 L35.105,18.951 C35.886,18.951 36.52,19.586 36.52,20.366 C36.52,21.146 35.886,21.78 35.105,21.78 L26.683,21.78 C25.903,21.78 25.269,21.146 25.269,20.366 L25.269,3.521 C25.269,3.139 24.959,2.829 24.577,2.829 L3.52,2.829 C3.139,2.829 2.829,3.139 2.829,3.521 L2.829,41.423 C2.829,41.805 3.139,42.114 3.52,42.114 L20.366,42.114 C21.145,42.114 21.78,42.749 21.78,43.528 C21.78,44.309 21.145,44.943 20.366,44.943 L3.52,44.943 C3.139,44.943 2.829,45.253 2.829,45.634 L2.829,62.479 C2.829,62.861 3.139,63.171 3.52,63.171 L18.26,63.171 C18.642,63.171 18.951,62.861 18.951,62.479 L18.951,54.057 C18.951,53.277 19.586,52.643 20.366,52.643 C21.145,52.643 21.78,53.277 21.78,54.057 L21.78,62.479 C21.78,62.861 22.09,63.171 22.472,63.171 L43.528,63.171 C43.91,63.171 44.22,62.861 44.22,62.479 L44.22,54.057 C44.22,53.277 44.854,52.643 45.634,52.643 C46.414,52.643 47.049,53.277 47.049,54.057 L47.049,62.479 C47.049,62.861 47.358,63.171 47.74,63.171 L62.479,63.171 C62.861,63.171 63.171,62.861 63.171,62.479 L63.171,20.366 C63.171,19.586 63.806,18.951 64.586,18.951 C65.365,18.951 66,19.586 66,20.366 L66,64.585 C66,65.365 65.365,66 64.586,66 L1.415,66 Z" id="Fill-1" fill="#1E1E1E" mask="url(#mask-2)"></path>
                    </g>
                    <mask id="mask-4" fill="white">
                        <use xlink:href="#path-3"></use>
                    </mask>
                    <g id="Clip-5"></g>
                    <polygon id="Fill-4" fill="#1E1E1E" mask="url(#mask-4)" points="8.423 36.52 11.252 36.52 11.252 33.691 8.423 33.691"></polygon>
                    <polygon id="Fill-6" fill="#1E1E1E" mask="url(#mask-4)" points="8.423 28.098 11.252 28.098 11.252 25.269 8.423 25.269"></polygon>
                    <polygon id="Fill-7" fill="#1E1E1E" mask="url(#mask-4)" points="16.846 36.52 19.675 36.52 19.675 33.691 16.846 33.691"></polygon>
                </g>
                <g id="Page-1" transform="translate(762.000000, 113.000000)">
                    <g id="Group-3">
                        <mask id="mask-6" fill="white">
                            <use xlink:href="#path-5"></use>
                        </mask>
                        <g id="Clip-2"></g>
                        <path d="M12.8311,2.8291 C11.9601,2.8291 11.2521,3.5371 11.2521,4.4081 L11.2521,13.1611 C11.2521,14.0321 11.9601,14.7401 12.8311,14.7401 L53.1681,14.7401 C54.0391,14.7401 54.7481,14.0321 54.7481,13.1611 L54.7481,4.4081 C54.7481,3.5371 54.0391,2.8291 53.1681,2.8291 L12.8311,2.8291 Z M30.8941,36.5201 C30.5131,36.5201 30.2031,36.8291 30.2031,37.2111 L30.2031,62.4791 C30.2031,62.8611 30.5131,63.1711 30.8941,63.1711 L35.1051,63.1711 C35.4871,63.1711 35.7971,62.8611 35.7971,62.4791 L35.7971,37.2111 C35.7971,36.8291 35.4871,36.5201 35.1051,36.5201 L30.8941,36.5201 Z M28.7891,66.0001 C28.0091,66.0001 27.3741,65.3651 27.3741,64.5851 L27.3741,35.1051 C27.3741,34.3261 28.0091,33.6911 28.7891,33.6911 L30.8941,33.6911 C31.2761,33.6911 31.5851,33.3821 31.5851,33.0001 L31.5851,28.1301 C31.5851,26.9511 30.6261,25.9921 29.4471,25.9921 L4.9681,25.9921 C2.2281,25.9921 0.0001,23.7631 0.0001,21.0241 L0.0001,11.2851 C0.0001,8.5451 2.2281,6.3171 4.9681,6.3171 L7.7311,6.3171 C8.1131,6.3171 8.4221,6.0071 8.4221,5.6261 L8.4221,4.4081 C8.4221,1.9771 10.4001,0.0001 12.8311,0.0001 L53.1681,0.0001 C55.6001,0.0001 57.5771,1.9771 57.5771,4.4081 L57.5771,13.1611 C57.5771,15.5911 55.6001,17.5691 53.1681,17.5691 L12.8311,17.5691 C10.4001,17.5691 8.4221,15.5911 8.4221,13.1611 L8.4221,9.8371 C8.4221,9.4551 8.1131,9.1461 7.7311,9.1461 L4.9681,9.1461 C3.7891,9.1461 2.8291,10.1051 2.8291,11.2851 L2.8291,21.0241 C2.8291,22.2031 3.7891,23.1621 4.9681,23.1621 L29.4471,23.1621 C32.1861,23.1621 34.4141,25.3911 34.4141,28.1301 L34.4141,33.0001 C34.4141,33.3821 34.7241,33.6911 35.1051,33.6911 L37.2111,33.6911 C37.9911,33.6911 38.6261,34.3261 38.6261,35.1051 L38.6261,64.5851 C38.6261,65.3651 37.9911,66.0001 37.2111,66.0001 L28.7891,66.0001 Z" id="Fill-1" fill="#1E1E1E" mask="url(#mask-6)"></path>
                    </g>
                    <g id="Group-6" transform="translate(54.000000, 23.000000)">
                        <mask id="mask-8" fill="white">
                            <use xlink:href="#path-7"></use>
                        </mask>
                        <g id="Clip-5"></g>
                        <path d="M2.1626,19.8374 C1.3826,19.8374 0.7476,19.2024 0.7476,18.4224 L0.7476,1.5774 C0.7476,0.7974 1.3826,0.1624 2.1626,0.1624 C2.9426,0.1624 3.5776,0.7974 3.5776,1.5774 L3.5776,18.4224 C3.5776,19.2024 2.9426,19.8374 2.1626,19.8374" id="Fill-4" fill="#1E1E1E" mask="url(#mask-8)"></path>
                    </g>
                    <g id="Group-9" transform="translate(54.000000, 48.000000)">
                        <mask id="mask-10" fill="white">
                            <use xlink:href="#path-9"></use>
                        </mask>
                        <g id="Clip-8"></g>
                        <path d="M2.1626,7.4717 C1.3826,7.4717 0.7476,6.8367 0.7476,6.0567 L0.7476,1.8457 C0.7476,1.0657 1.3826,0.4307 2.1626,0.4307 C2.9426,0.4307 3.5776,1.0657 3.5776,1.8457 L3.5776,6.0567 C3.5776,6.8367 2.9426,7.4717 2.1626,7.4717" id="Fill-7" fill="#1E1E1E" mask="url(#mask-10)"></path>
                    </g>
                    <path d="M47.7398,34.4146 C46.9598,34.4146 46.3248,33.7796 46.3248,32.9996 L46.3248,24.5776 C46.3248,23.7976 46.9598,23.1626 47.7398,23.1626 C48.5198,23.1626 49.1548,23.7976 49.1548,24.5776 L49.1548,32.9996 C49.1548,33.7796 48.5198,34.4146 47.7398,34.4146" id="Fill-10" fill="#1E1E1E"></path>
                    <path d="M47.7398,47.0488 C46.9598,47.0488 46.3248,46.4138 46.3248,45.6338 L46.3248,41.4228 C46.3248,40.6428 46.9598,40.0078 47.7398,40.0078 C48.5198,40.0078 49.1548,40.6428 49.1548,41.4228 L49.1548,45.6338 C49.1548,46.4138 48.5198,47.0488 47.7398,47.0488" id="Fill-12" fill="#1E1E1E"></path>
                </g>
                <g id="Page-1" transform="translate(629.000000, 113.000000)">
                    <mask id="mask-12" fill="white">
                        <use xlink:href="#path-11"></use>
                    </mask>
                    <g id="Clip-2"></g>
                    <path d="M63.0986,7.0498 C62.9066,7.9888 62.3456,8.7988 61.5206,9.3258 L44.3806,20.4588 C43.7806,20.8458 43.0746,21.0508 42.3396,21.0508 C41.0686,21.0508 39.9026,20.4508 39.2226,19.4488 C38.6946,18.6758 38.5056,17.7458 38.6936,16.8288 C38.8856,15.8898 39.4476,15.0818 40.2716,14.5538 L57.4136,3.4208 C58.0136,3.0348 58.7176,2.8318 59.4526,2.8318 C60.7246,2.8318 61.8906,3.4298 62.5706,4.4298 C63.0996,5.2038 63.2866,6.1348 63.0986,7.0498 M64.9086,2.8368 C63.6976,1.0608 61.6596,-0.0002 59.4556,-0.0002 C58.1806,-0.0002 56.9426,0.3618 55.8786,1.0428 L38.7366,12.1758 C37.2656,13.1198 36.2656,14.5718 35.9216,16.2648 C35.5806,17.9358 35.9226,19.6328 36.8826,21.0398 C36.8996,21.0618 36.9196,21.0798 36.9386,21.0988 C36.9986,21.1588 37.0566,21.2208 37.1086,21.2888 C37.1736,21.3738 37.2076,21.4738 37.2276,21.5758 L36.8776,23.0808 L33.5156,36.8758 C33.3876,37.4018 33.5766,37.9638 33.9976,38.3068 L41.6676,44.5378 C41.6986,44.5628 41.7266,44.5908 41.7526,44.6208 C42.3116,45.2598 42.1986,45.9738 42.1236,46.2498 C41.9556,46.8728 41.4806,47.3418 40.8486,47.5068 C40.7816,47.5238 40.7106,47.5478 40.6426,47.5768 L5.0366,63.0988 C4.9806,63.1238 4.9216,63.1398 4.8616,63.1488 C4.7716,63.1618 4.6846,63.1678 4.6016,63.1678 C3.9756,63.1678 3.5536,62.8428 3.3486,62.6418 C3.1346,62.4248 2.6616,61.8228 2.8896,60.9358 L10.9936,29.1408 C11.1396,28.5798 11.6836,28.2338 12.1146,28.0408 C12.6406,27.8068 13.2826,27.6778 13.9206,27.6778 C14.4776,27.6778 14.9816,27.7788 15.3246,27.9538 L24.3686,32.3248 C24.5626,32.4188 24.7016,32.5968 24.7446,32.8068 C24.7886,33.0168 24.7326,33.2358 24.5926,33.3978 L14.8686,44.7088 C14.6216,44.9958 14.5016,45.3608 14.5306,45.7378 C14.5586,46.1148 14.7316,46.4578 15.0176,46.7038 C15.2776,46.9278 15.5966,47.0458 15.9396,47.0458 C16.3526,47.0458 16.7436,46.8668 17.0126,46.5548 L28.4956,33.1978 C28.4956,33.1978 28.4966,33.1938 28.4986,33.1898 C28.5286,33.1268 28.5606,33.0628 28.6026,32.9998 C28.6316,32.9548 28.6646,32.9138 28.7076,32.8628 C28.7166,32.8318 28.7276,32.7958 28.7426,32.7578 C28.7716,32.6838 28.7896,32.5908 28.8136,32.4568 C28.8306,32.3618 28.8456,32.2798 28.8446,32.2238 C28.8436,32.1628 28.8266,32.0818 28.8016,31.9598 C28.7806,31.8548 28.7616,31.7638 28.7346,31.7018 C28.7156,31.6548 28.6736,31.5918 28.6256,31.5168 L28.6026,31.4838 C28.5346,31.3798 28.4836,31.3078 28.4296,31.2538 C28.4026,31.2268 28.3786,31.2008 28.3586,31.1758 C28.3076,31.1508 28.2576,31.1238 28.2096,31.0918 C28.1536,31.0548 28.1036,31.0138 28.0336,30.9528 L16.5846,25.4208 C15.8416,25.0408 14.9206,24.8408 13.9196,24.8408 C12.8826,24.8408 11.8576,25.0548 10.9546,25.4618 C9.5466,26.0918 8.5866,27.1498 8.2536,28.4368 L0.1516,60.2308 C-0.2634,61.8258 0.1856,63.4768 1.3526,64.6458 C2.2256,65.5198 3.3756,65.9998 4.5896,65.9998 C4.9816,65.9998 5.3776,65.9488 5.7736,65.8458 C5.8376,65.8298 5.9076,65.8058 5.9776,65.7768 L41.6386,50.2298 C41.6646,50.2178 41.6916,50.2078 41.7196,50.1998 C43.2576,49.7468 44.4296,48.5488 44.8526,46.9948 C45.2926,45.3798 44.8486,43.7088 43.6676,42.5278 C43.6316,42.4918 43.5956,42.4588 43.5576,42.4278 L36.8156,36.9498 C36.6086,36.7808 36.5166,36.5078 36.5796,36.2498 L39.5506,24.0618 C39.5956,23.8778 39.7136,23.7208 39.8776,23.6268 C39.9836,23.5658 40.1026,23.5348 40.2226,23.5348 C40.2886,23.5348 40.3546,23.5448 40.4186,23.5628 C41.1326,23.7758 41.7596,23.8788 42.3366,23.8788 C43.6126,23.8788 44.8516,23.5178 45.9146,22.8368 L63.0566,11.7038 C64.5246,10.7608 65.5246,9.3098 65.8716,7.6168 C66.2126,5.9468 65.8696,4.2488 64.9086,2.8368" id="Fill-1" fill="#1E1E1E" mask="url(#mask-12)"></path>
                </g>
                <g id="Page-1" transform="translate(497.000000, 113.000000)">
                    <mask id="mask-14" fill="white">
                        <use xlink:href="#path-13"></use>
                    </mask>
                    <g id="Clip-2"></g>
                    <path d="M3.5205,2.8291 C3.1385,2.8291 2.8295,3.1391 2.8295,3.5201 L2.8295,11.9431 C2.8295,12.3251 3.1385,12.6341 3.5205,12.6341 L20.3655,12.6341 C20.7475,12.6341 21.0575,12.3251 21.0575,11.9431 L21.0575,3.5201 C21.0575,3.1391 20.7475,2.8291 20.3655,2.8291 L3.5205,2.8291 Z M24.5775,2.8291 C24.1955,2.8291 23.8865,3.1391 23.8865,3.5201 L23.8865,11.9431 C23.8865,12.3251 24.1955,12.6341 24.5775,12.6341 L41.4225,12.6341 C41.8045,12.6341 42.1135,12.3251 42.1135,11.9431 L42.1135,3.5201 C42.1135,3.1391 41.8045,2.8291 41.4225,2.8291 L24.5775,2.8291 Z M45.6345,2.8291 C45.2525,2.8291 44.9425,3.1391 44.9425,3.5201 L44.9425,11.9431 C44.9425,12.3251 45.2525,12.6341 45.6345,12.6341 L62.4795,12.6341 C62.8615,12.6341 63.1705,12.3251 63.1705,11.9431 L63.1705,3.5201 C63.1705,3.1391 62.8615,2.8291 62.4795,2.8291 L45.6345,2.8291 Z M14.0485,15.4631 C13.6665,15.4631 13.3575,15.7731 13.3575,16.1541 L13.3575,24.5771 C13.3575,24.9591 13.6665,25.2681 14.0485,25.2681 L30.8945,25.2681 C31.2755,25.2681 31.5855,24.9591 31.5855,24.5771 L31.5855,16.1541 C31.5855,15.7731 31.2755,15.4631 30.8945,15.4631 L14.0485,15.4631 Z M35.1055,15.4631 C34.7245,15.4631 34.4145,15.7731 34.4145,16.1541 L34.4145,24.5771 C34.4145,24.9591 34.7245,25.2681 35.1055,25.2681 L51.9515,25.2681 C52.3335,25.2681 52.6425,24.9591 52.6425,24.5771 L52.6425,16.1541 C52.6425,15.7731 52.3335,15.4631 51.9515,15.4631 L35.1055,15.4631 Z M3.5205,28.0981 C3.1385,28.0981 2.8295,28.4071 2.8295,28.7881 L2.8295,37.2111 C2.8295,37.5931 3.1385,37.9021 3.5205,37.9021 L20.3655,37.9021 C20.7475,37.9021 21.0575,37.5931 21.0575,37.2111 L21.0575,28.7881 C21.0575,28.4071 20.7475,28.0981 20.3655,28.0981 L3.5205,28.0981 Z M24.5775,28.0981 C24.1955,28.0981 23.8865,28.4071 23.8865,28.7881 L23.8865,37.2111 C23.8865,37.5931 24.1955,37.9021 24.5775,37.9021 L41.4225,37.9021 C41.8045,37.9021 42.1135,37.5931 42.1135,37.2111 L42.1135,28.7881 C42.1135,28.4071 41.8045,28.0981 41.4225,28.0981 L24.5775,28.0981 Z M45.6345,28.0981 C45.2525,28.0981 44.9425,28.4071 44.9425,28.7881 L44.9425,37.2111 C44.9425,37.5931 45.2525,37.9021 45.6345,37.9021 L62.4795,37.9021 C62.8615,37.9021 63.1705,37.5931 63.1705,37.2111 L63.1705,28.7881 C63.1705,28.4071 62.8615,28.0981 62.4795,28.0981 L45.6345,28.0981 Z M14.0485,40.7311 C13.6665,40.7311 13.3575,41.0411 13.3575,41.4231 L13.3575,49.8461 C13.3575,50.2271 13.6665,50.5371 14.0485,50.5371 L30.8945,50.5371 C31.2755,50.5371 31.5855,50.2271 31.5855,49.8461 L31.5855,41.4231 C31.5855,41.0411 31.2755,40.7311 30.8945,40.7311 L14.0485,40.7311 Z M35.1055,40.7311 C34.7245,40.7311 34.4145,41.0411 34.4145,41.4231 L34.4145,49.8461 C34.4145,50.2271 34.7245,50.5371 35.1055,50.5371 L51.9515,50.5371 C52.3335,50.5371 52.6425,50.2271 52.6425,49.8461 L52.6425,41.4231 C52.6425,41.0411 52.3335,40.7311 51.9515,40.7311 L35.1055,40.7311 Z M3.5205,53.3661 C3.1385,53.3661 2.8295,53.6751 2.8295,54.0571 L2.8295,62.4791 C2.8295,62.8611 3.1385,63.1711 3.5205,63.1711 L20.3655,63.1711 C20.7475,63.1711 21.0575,62.8611 21.0575,62.4791 L21.0575,54.0571 C21.0575,53.6751 20.7475,53.3661 20.3655,53.3661 L3.5205,53.3661 Z M24.5775,53.3661 C24.1955,53.3661 23.8865,53.6751 23.8865,54.0571 L23.8865,62.4791 C23.8865,62.8611 24.1955,63.1711 24.5775,63.1711 L41.4225,63.1711 C41.8045,63.1711 42.1135,62.8611 42.1135,62.4791 L42.1135,54.0571 C42.1135,53.6751 41.8045,53.3661 41.4225,53.3661 L24.5775,53.3661 Z M45.6345,53.3661 C45.2525,53.3661 44.9425,53.6751 44.9425,54.0571 L44.9425,62.4791 C44.9425,62.8611 45.2525,63.1711 45.6345,63.1711 L62.4795,63.1711 C62.8615,63.1711 63.1705,62.8611 63.1705,62.4791 L63.1705,54.0571 C63.1705,53.6751 62.8615,53.3661 62.4795,53.3661 L45.6345,53.3661 Z M3.2835,66.0001 C1.4735,66.0001 -0.0005,64.5911 -0.0005,62.8601 L-0.0005,53.6771 C-0.0005,51.9451 1.4735,50.5371 3.2835,50.5371 L9.8375,50.5371 C10.2195,50.5371 10.5285,50.2271 10.5285,49.8461 L10.5285,41.4231 C10.5285,41.0411 10.2195,40.7311 9.8375,40.7311 L3.2835,40.7311 C1.4735,40.7311 -0.0005,39.3231 -0.0005,37.5921 L-0.0005,28.4081 C-0.0005,26.6771 1.4735,25.2681 3.2835,25.2681 L9.8375,25.2681 C10.2195,25.2681 10.5285,24.9591 10.5285,24.5771 L10.5285,16.1541 C10.5285,15.7731 10.2195,15.4631 9.8375,15.4631 L3.2835,15.4631 C1.4735,15.4631 -0.0005,14.0551 -0.0005,12.3231 L-0.0005,3.1401 C-0.0005,1.4091 1.4735,0.0001 3.2835,0.0001 L62.7165,0.0001 C64.5265,0.0001 65.9995,1.4091 65.9995,3.1401 L65.9995,12.3231 C65.9995,14.0551 64.5265,15.4631 62.7165,15.4631 L56.1625,15.4631 C55.7815,15.4631 55.4715,15.7731 55.4715,16.1541 L55.4715,24.5771 C55.4715,24.9591 55.7815,25.2681 56.1625,25.2681 L62.7165,25.2681 C64.5265,25.2681 65.9995,26.6771 65.9995,28.4081 L65.9995,37.5921 C65.9995,39.3231 64.5265,40.7311 62.7165,40.7311 L56.1625,40.7311 C55.7815,40.7311 55.4715,41.0411 55.4715,41.4231 L55.4715,49.8461 C55.4715,50.2271 55.7815,50.5371 56.1625,50.5371 L62.7165,50.5371 C64.5265,50.5371 65.9995,51.9451 65.9995,53.6771 L65.9995,62.8601 C65.9995,64.5911 64.5265,66.0001 62.7165,66.0001 L3.2835,66.0001 Z" id="Fill-1" fill="#1E1E1E" mask="url(#mask-14)"></path>
                </g>
                <g id="Page-1" transform="translate(364.000000, 113.000000)">
                    <g id="Group-3">
                        <mask id="mask-16" fill="white">
                            <use xlink:href="#path-15"></use>
                        </mask>
                        <g id="Clip-2"></g>
                        <path d="M46.833,23.4824 C48.24,23.4824 49.568,24.0324 50.479,24.9914 C52.029,26.6224 52.344,29.1904 51.261,31.3834 C51.133,31.6434 51.18,31.9554 51.38,32.1654 L54.203,35.1384 C54.333,35.2754 54.515,35.3534 54.704,35.3534 C54.894,35.3534 55.074,35.2754 55.205,35.1384 L62.66,27.2904 C62.913,27.0234 62.913,26.6054 62.66,26.3384 L59.793,23.3214 C59.659,23.1794 59.477,23.1054 59.292,23.1054 C59.185,23.1054 59.076,23.1304 58.977,23.1814 C58.222,23.5684 57.37,23.7724 56.515,23.7724 C55.107,23.7724 53.78,23.2234 52.872,22.2664 C51.317,20.6314 51.003,18.0624 52.089,15.8714 C52.218,15.6114 52.171,15.2984 51.971,15.0874 L44.681,7.4154 C41.803,4.3864 38.195,2.8504 33.958,2.8504 C32.697,2.8504 31.385,2.9914 30.056,3.2664 C29.736,3.3344 29.507,3.6144 29.506,3.9404 C29.504,4.2664 29.73,4.5484 30.049,4.6184 C32.402,5.1314 34.222,6.0814 35.457,7.4414 C36.904,9.0334 37.554,11.1974 37.335,13.7014 C37.241,14.7804 37.002,15.7214 36.817,16.3214 C36.744,16.5594 36.805,16.8194 36.977,17.0004 L43.557,23.9364 C43.691,24.0784 43.874,24.1524 44.059,24.1524 C44.166,24.1524 44.275,24.1274 44.375,24.0754 C45.127,23.6874 45.978,23.4824 46.833,23.4824 M24.687,37.3964 C24.511,37.3964 24.334,37.4634 24.199,37.5994 L3.902,57.8894 C3.633,58.1594 3.633,58.5974 3.902,58.8674 L7.131,62.0964 C7.26,62.2264 7.436,62.2994 7.619,62.2994 C7.803,62.2994 7.979,62.2264 8.108,62.0964 L28.404,41.8044 C28.534,41.6744 28.607,41.4994 28.607,41.3154 C28.607,41.1314 28.534,40.9574 28.404,40.8274 L25.176,37.5994 C25.041,37.4634 24.864,37.3964 24.687,37.3964 M7.619,66.0004 C7.242,66.0004 6.887,65.8524 6.619,65.5864 L0.413,59.3784 C-0.138,58.8274 -0.138,57.9294 0.413,57.3784 L23.687,34.1104 C23.954,33.8434 24.31,33.6964 24.687,33.6964 C25.065,33.6964 25.42,33.8434 25.687,34.1104 L27.302,35.7244 C27.432,35.8544 27.607,35.9264 27.79,35.9264 C27.974,35.9264 28.149,35.8544 28.279,35.7244 L39.38,24.6254 C39.646,24.3604 39.651,23.9324 39.393,23.6614 L34.701,18.7224 C34.368,18.3704 33.756,17.4614 33.836,16.5624 C33.855,16.3194 33.91,16.0764 33.999,15.8334 C34.095,15.5714 34.416,14.6214 34.517,13.4564 C34.668,11.7114 34.291,10.3654 33.365,9.3434 C31.995,7.8364 29.283,7.0234 25.522,6.9904 C24.847,6.9844 24.229,6.7114 23.786,6.2234 C23.327,5.7164 23.108,5.0414 23.171,4.3224 C23.266,3.2554 23.97,2.3014 24.964,1.8914 C27.053,1.0284 30.326,0.0004 34.05,0.0004 C39.018,0.0004 43.283,1.8394 46.73,5.4674 L55.188,14.3694 C55.708,14.9154 55.708,15.7694 55.188,16.3154 C54.066,17.4964 53.946,19.2914 54.921,20.3184 C55.323,20.7404 55.874,20.9714 56.475,20.9714 C57.207,20.9714 57.953,20.6304 58.521,20.0364 C58.771,19.7714 59.145,19.6214 59.547,19.6214 C59.949,19.6214 60.322,19.7714 60.57,20.0344 L65.336,25.0494 C65.815,25.5514 66.053,26.2574 65.99,26.9854 C65.934,27.6314 65.648,28.2544 65.187,28.7404 L56.632,37.7434 C56.158,38.2434 55.54,38.5534 54.89,38.6174 C54.807,38.6254 54.724,38.6304 54.641,38.6304 C53.981,38.6304 53.373,38.3724 52.926,37.9034 L48.16,32.8854 C47.642,32.3384 47.642,31.4844 48.16,30.9374 C49.282,29.7564 49.402,27.9624 48.429,26.9384 C48.028,26.5164 47.477,26.2844 46.876,26.2844 C46.144,26.2844 45.397,26.6264 44.828,27.2214 C44.577,27.4864 44.203,27.6364 43.802,27.6364 C43.399,27.6364 43.026,27.4864 42.777,27.2234 L42.294,26.7144 C42.165,26.5804 41.987,26.5024 41.802,26.5004 L41.793,26.5004 C41.609,26.5004 41.434,26.5734 41.304,26.7024 L30.279,37.7244 C30.149,37.8544 30.077,38.0304 30.077,38.2124 C30.077,38.3964 30.149,38.5724 30.279,38.7024 L31.894,40.3154 C32.445,40.8674 32.445,41.7644 31.894,42.3154 L8.62,65.5864 C8.353,65.8524 7.997,66.0004 7.619,66.0004" id="Fill-1" fill="#1E1E1E" mask="url(#mask-16)"></path>
                    </g>
                    <path d="M22.4707,66 C21.6907,66 21.0567,65.365 21.0567,64.586 C21.0567,63.806 21.6907,63.171 22.4707,63.171 L54.0567,63.171 C54.4377,63.171 54.7467,62.861 54.7467,62.48 L54.7467,51.953 C54.7467,51.572 54.4377,51.263 54.0567,51.263 L51.9497,51.263 C51.1707,51.263 50.5357,50.628 50.5357,49.848 C50.5357,49.068 51.1707,48.434 51.9497,48.434 L60.3727,48.434 C61.1537,48.434 61.7877,49.068 61.7877,49.848 C61.7877,50.628 61.1537,51.263 60.3727,51.263 L58.2677,51.263 C57.8857,51.263 57.5767,51.572 57.5767,51.953 L57.5767,62.48 C57.5767,62.861 57.8857,63.171 58.2677,63.171 L64.5847,63.171 C65.3657,63.171 65.9987,63.806 65.9987,64.586 C65.9987,65.365 65.3657,66 64.5847,66 L22.4707,66 Z" id="Fill-4" fill="#1E1E1E"></path>
                    <path d="M39.3164,51.2627 C38.5374,51.2627 37.9024,50.6277 37.9024,49.8477 C37.9024,49.0687 38.5374,48.4337 39.3164,48.4337 L43.5284,48.4337 C44.3074,48.4337 44.9424,49.0687 44.9424,49.8477 C44.9424,50.6277 44.3074,51.2627 43.5284,51.2627 L39.3164,51.2627 Z" id="Fill-6" fill="#1E1E1E"></path>
                    <path d="M47.7393,44.9463 C47.3613,44.9463 47.0073,44.7993 46.7393,44.5323 L43.7613,41.5523 C43.4943,41.2853 43.3463,40.9293 43.3463,40.5513 C43.3463,40.1743 43.4943,39.8193 43.7603,39.5533 C44.0283,39.2863 44.3843,39.1383 44.7613,39.1383 C45.1393,39.1383 45.4943,39.2863 45.7613,39.5523 L48.7393,42.5323 C49.0073,42.8003 49.1543,43.1553 49.1533,43.5343 C49.1533,43.9113 49.0073,44.2653 48.7403,44.5313 C48.4713,44.7993 48.1173,44.9463 47.7393,44.9463" id="Fill-8" fill="#1E1E1E"></path>
                </g>
                <g id="Page-1" transform="translate(232.000000, 113.000000)">
                    <g id="Group-3">
                        <mask id="mask-18" fill="white">
                            <use xlink:href="#path-17"></use>
                        </mask>
                        <g id="Clip-2"></g>
                        <path d="M30.894,2.8291 C29.352,2.8291 28.097,4.0841 28.097,5.6261 C28.097,7.1681 29.352,8.4231 30.894,8.4231 C32.436,8.4231 33.691,7.1681 33.691,5.6261 C33.691,4.0841 32.436,2.8291 30.894,2.8291 Z M39.317,23.8861 C38.935,23.8861 38.626,24.1951 38.626,24.5771 L38.626,28.7891 C38.626,29.1701 38.935,29.4791 39.317,29.4791 L51.951,29.4791 C52.731,29.4791 53.366,30.1141 53.366,30.8941 L53.366,39.3171 C53.366,39.6981 53.675,40.0081 54.057,40.0081 L58.268,40.0081 C58.65,40.0081 58.959,39.6981 58.959,39.3171 L58.959,27.7351 C58.959,25.6131 57.232,23.8861 55.11,23.8861 L39.317,23.8861 Z M26.683,19.6751 C26.301,19.6751 25.992,19.9841 25.992,20.3661 L25.992,36.7571 C25.992,36.8641 26.017,36.9711 26.065,37.0671 C27.162,39.2451 29.278,40.0201 30.894,40.0201 C32.51,40.0201 34.627,39.2451 35.723,37.0671 C35.771,36.9711 35.797,36.8641 35.797,36.7571 L35.797,20.3661 C35.797,19.9841 35.487,19.6751 35.105,19.6751 L26.683,19.6751 Z M49.845,42.8371 C49.464,42.8371 49.154,43.1461 49.154,43.5281 L49.154,45.6341 C49.154,46.0161 49.464,46.3251 49.845,46.3251 L62.479,46.3251 C62.861,46.3251 63.171,46.0161 63.171,45.6341 L63.171,43.5281 C63.171,43.1461 62.861,42.8371 62.479,42.8371 L49.845,42.8371 Z M33,66.0001 C32.22,66.0001 31.585,65.3651 31.585,64.5851 L31.585,55.1091 C31.585,52.9871 29.858,51.2601 27.736,51.2601 L9.837,51.2601 C9.058,51.2601 8.422,50.6251 8.422,49.8461 L8.422,30.8941 C8.422,30.1141 9.058,29.4791 9.837,29.4791 L22.472,29.4791 C22.853,29.4791 23.163,29.1701 23.163,28.7891 L23.163,24.5771 C23.163,24.1951 22.853,23.8861 22.472,23.8861 L6.679,23.8861 C4.556,23.8861 2.829,25.6131 2.829,27.7351 L2.829,53.0041 C2.829,55.1271 4.556,56.8531 6.679,56.8531 L24.577,56.8531 C25.357,56.8531 25.992,57.4881 25.992,58.2681 L25.992,64.5851 C25.992,65.3651 25.357,66.0001 24.577,66.0001 C23.797,66.0001 23.163,65.3651 23.163,64.5851 L23.163,60.3741 C23.163,59.9921 22.853,59.6831 22.472,59.6831 L6.679,59.6831 C2.996,59.6831 0,56.6861 0,53.0041 L0,27.7351 C0,24.0531 2.996,21.0571 6.679,21.0571 L22.472,21.0571 C22.853,21.0571 23.163,20.7471 23.163,20.3661 L23.163,18.2601 C23.163,17.4801 23.797,16.8461 24.577,16.8461 L28.789,16.8461 C29.17,16.8461 29.479,16.5361 29.479,16.1541 L29.479,11.5551 C29.479,11.2621 29.296,11.0011 29.02,10.9031 C27.426,10.3351 26.185,9.0951 25.616,7.4991 C25.518,7.2251 25.257,7.0401 24.965,7.0401 L18.26,7.0401 C17.878,7.0401 17.569,7.3501 17.569,7.7311 L17.569,9.8371 C17.569,10.6171 16.934,11.2521 16.154,11.2521 C15.374,11.2521 14.74,10.6171 14.74,9.8371 L14.74,1.4141 C14.74,0.6351 15.374,0.0001 16.154,0.0001 C16.934,0.0001 17.569,0.6351 17.569,1.4141 L17.569,3.5201 C17.569,3.9021 17.878,4.2111 18.26,4.2111 L24.965,4.2111 C25.257,4.2111 25.518,4.0271 25.616,3.7521 C26.416,1.5081 28.538,0.0001 30.894,0.0001 C33.251,0.0001 35.372,1.5081 36.172,3.7521 C36.27,4.0271 36.531,4.2111 36.823,4.2111 L43.528,4.2111 C43.91,4.2111 44.22,3.9021 44.22,3.5201 L44.22,1.4141 C44.22,0.6351 44.854,0.0001 45.634,0.0001 C46.414,0.0001 47.049,0.6351 47.049,1.4141 L47.049,9.8371 C47.049,10.6171 46.414,11.2521 45.634,11.2521 C44.854,11.2521 44.22,10.6171 44.22,9.8371 L44.22,7.7311 C44.22,7.3501 43.91,7.0401 43.528,7.0401 L36.823,7.0401 C36.531,7.0401 36.27,7.2251 36.172,7.4991 C35.603,9.0941 34.363,10.3351 32.768,10.9041 C32.492,11.0031 32.309,11.2631 32.309,11.5561 L32.309,16.1541 C32.309,16.5361 32.618,16.8461 33,16.8461 L37.211,16.8461 C37.991,16.8461 38.626,17.4801 38.626,18.2601 L38.626,20.3661 C38.626,20.7471 38.935,21.0571 39.317,21.0571 L55.11,21.0571 C58.792,21.0571 61.789,24.0531 61.789,27.7351 L61.789,39.3171 C61.789,39.6981 62.098,40.0081 62.479,40.0081 L64.585,40.0081 C65.365,40.0081 66,40.6421 66,41.4231 L66,47.7391 C66,48.5191 65.365,49.1541 64.585,49.1541 L47.74,49.1541 C46.96,49.1541 46.325,48.5191 46.325,47.7391 L46.325,41.4231 C46.325,40.6421 46.96,40.0081 47.74,40.0081 L49.845,40.0081 C50.227,40.0081 50.537,39.6981 50.537,39.3171 L50.537,33.0001 C50.537,32.6181 50.227,32.3081 49.845,32.3081 L39.317,32.3081 C38.935,32.3081 38.626,32.6181 38.626,33.0001 L38.626,37.2111 C38.626,37.3971 38.589,37.5841 38.519,37.7501 C37.216,40.8961 34.294,42.8501 30.894,42.8501 C27.494,42.8501 24.573,40.8961 23.27,37.7531 C23.199,37.5841 23.163,37.3971 23.163,37.2111 L23.163,33.0001 C23.163,32.6181 22.853,32.3081 22.472,32.3081 L11.943,32.3081 C11.561,32.3081 11.252,32.6181 11.252,33.0001 L11.252,47.7391 C11.252,48.1211 11.561,48.4311 11.943,48.4311 L27.736,48.4311 C31.418,48.4311 34.415,51.4271 34.415,55.1091 L34.415,64.5851 C34.415,65.3651 33.78,66.0001 33,66.0001 Z" id="Fill-1" fill="#1E1E1E" mask="url(#mask-18)"></path>
                    </g>
                    <mask id="mask-20" fill="white">
                        <use xlink:href="#path-19"></use>
                    </mask>
                    <g id="Clip-5"></g>
                    <polygon id="Fill-4" fill="#1E1E1E" mask="url(#mask-20)" points="63.171 66 66 66 66 63.171 63.171 63.171"></polygon>
                    <polygon id="Fill-6" fill="#1E1E1E" mask="url(#mask-20)" points="58.959 57.577 61.788 57.577 61.788 54.748 58.959 54.748"></polygon>
                    <polygon id="Fill-7" fill="#1E1E1E" mask="url(#mask-20)" points="50.537 57.577 53.366 57.577 53.366 54.748 50.537 54.748"></polygon>
                    <polygon id="Fill-8" fill="#1E1E1E" mask="url(#mask-20)" points="54.748 66 57.577 66 57.577 63.171 54.748 63.171"></polygon>
                    <polygon id="Fill-9" fill="#1E1E1E" mask="url(#mask-20)" points="46.325 66 49.154 66 49.154 63.171 46.325 63.171"></polygon>
                    <polygon id="Fill-10" fill="#1E1E1E" mask="url(#mask-20)" points="29.479 28.098 32.308 28.098 32.308 25.269 29.479 25.269"></polygon>
                    <polygon id="Fill-11" fill="#1E1E1E" mask="url(#mask-20)" points="29.479 34.414 32.308 34.414 32.308 31.585 29.479 31.585"></polygon>
                </g>
            </g>
        </g>
    </g>
</svg>