
<svg width="1024px" height="35px" viewBox="0 0 1024 35" version="1.1" xmlns="http://www.w3.org/2000/svg" xmlns:xlink="http://www.w3.org/1999/xlink">
    <!-- Generator: Sketch 49.1 (51147) - http://www.bohemiancoding.com/sketch -->
    <desc>Created with Sketch.</desc>
    <defs></defs>
    <g id="Welcome" stroke="none" stroke-width="1" fill="none" fill-rule="evenodd">
        <g id="Version-1" transform="translate(0.000000, -1100.000000)">
            <g id="Our-Services" transform="translate(-75.000000, 1100.000000)">
                <path d="M9.84248559,0 L768.160567,-1.77635684e-15 C772.361001,-6.22397195e-14 775.846101,3.24855763 776.140847,7.43863754 L776.984971,19.4386391 C777.295003,23.8460262 773.973441,27.6702499 769.566054,27.9802818 C769.375112,27.9937133 769.183749,28.0002877 768.992335,27.999992 L7.97422062,26.8246177 C3.55594789,26.8177938 -0.020237962,23.2305442 -0.0134140454,18.8122715 C-0.0127206533,18.3633218 0.0257631512,17.9152272 0.10162977,17.4727336 L1.95753895,6.64810635 C2.61601997,2.80750269 5.94584168,7.15801874e-16 9.84248559,0 Z" id="Rectangle" fill="#FFBA00" opacity="0.46948596"></path>
                <path d="M363.739205,12 L1114.69162,12 C1118.79383,12 1122.23128,15.1028865 1122.64987,19.1836806 L1122.95759,22.1836799 C1123.40843,26.5788958 1120.21088,30.507401 1115.81567,30.9582417 C1115.54164,30.9863503 1115.26634,31.0002865 1114.99088,30.9999948 L362.321037,30.2027935 C358.273459,30.1985064 354.995725,26.9138215 355.000012,22.8662443 C355.000644,22.2695981 355.074133,21.6752616 355.218848,21.0964312 L355.978087,18.0596247 C356.868454,14.4983327 360.068298,12 363.739205,12 Z" id="Rectangle" fill="#FFBA00"></path>
                <polygon id="Rectangle-2" fill="#FFD327" points="67 26 1116 26 1116 35 464.050781 35 67 35"></polygon>
            </g>
        </g>
    </g>
</svg>